<svg width="16" height="16" viewBox="0 0 16 16" fill="none" xmlns="http://www.w3.org/2000/svg">
<path fill-rule="evenodd" clip-rule="evenodd" d="M14.3391 4.72194L15.1394 3.92094C15.1403 3.91922 15.1533 3.90499 15.1639 3.8937C15.165 3.89229 15.1659 3.89101 15.1665 3.88998C15.1697 3.8849 15.1749 3.87379 15.181 3.86087C15.1912 3.83936 15.2037 3.81284 15.2129 3.80088C15.2158 3.79269 15.2187 3.7845 15.2206 3.77583C15.2226 3.76906 15.224 3.76277 15.2255 3.75648C15.2269 3.75019 15.2284 3.7439 15.2303 3.73713C15.231 3.73416 15.2317 3.73146 15.2324 3.72902C15.2324 3.71059 15.2315 3.68839 15.2309 3.67297C15.2305 3.66493 15.2303 3.65872 15.2303 3.65587C15.2303 3.65004 15.2303 3.64522 15.2303 3.64128C15.2282 3.63264 15.2264 3.62614 15.2264 3.62685C15.2252 3.62195 15.2222 3.60891 15.2191 3.59521C15.2124 3.56564 15.205 3.533 15.2129 3.57268C15.213 3.57357 15.2132 3.57443 15.2133 3.57526C15.2126 3.57367 15.2118 3.57214 15.211 3.57074C15.2032 3.55526 15.1955 3.53978 15.1858 3.52431C15.1836 3.521 15.1783 3.51378 15.1726 3.50613C15.1681 3.49996 15.1633 3.4935 15.1598 3.48858C15.1552 3.48388 15.148 3.47638 15.1433 3.47013L15.1356 3.46239C15.1071 3.43265 15.0778 3.40377 15.0488 3.37517C15.0345 3.36099 15.0201 3.34688 15.006 3.33276L14.4048 2.73104L12.8815 1.20643C12.8434 1.1683 12.8055 1.13018 12.7677 1.09214C12.6923 1.01625 12.6172 0.940646 12.5412 0.865903L12.5393 0.863968L12.5288 0.8534C12.5309 0.853855 12.5331 0.854165 12.5354 0.854294C12.5331 0.854031 12.5302 0.853053 12.5269 0.85154L12.52 0.84462C12.5021 0.826734 12.4975 0.829261 12.502 0.836213C12.4955 0.831711 12.489 0.826866 12.4828 0.822299C12.4744 0.81607 12.4666 0.810357 12.4609 0.806731C12.462 0.804635 12.4568 0.800443 12.4407 0.79625C12.438 0.795406 12.4349 0.794607 12.4316 0.793835C12.4272 0.791641 12.4234 0.789222 12.4214 0.786576C12.4231 0.788842 12.4249 0.790897 12.4267 0.792755C12.4208 0.791493 12.4143 0.790277 12.4075 0.789012C12.3939 0.786484 12.3793 0.78376 12.3663 0.780083C12.3911 0.785485 12.4008 0.773033 12.3653 0.773033C12.3588 0.773033 12.3524 0.772764 12.3459 0.772427C12.3459 0.772426 12.3458 0.772425 12.3458 0.772424C12.3436 0.772309 12.3414 0.772187 12.3392 0.772065C12.3305 0.771581 12.3218 0.771098 12.3131 0.771098C12.3082 0.771098 12.2945 0.771694 12.2803 0.772313C12.2781 0.772407 12.2759 0.772501 12.2738 0.772595C12.2672 0.774199 12.257 0.776327 12.2465 0.778507C12.2321 0.781504 12.2173 0.7846 12.2107 0.786576C12.2066 0.787922 12.1951 0.791611 12.1842 0.795034C12.1833 0.795465 12.1824 0.795874 12.1817 0.79625C12.1777 0.798742 12.1708 0.803675 12.1624 0.809624C12.1429 0.823494 12.1156 0.842891 12.0998 0.849795C12.0854 0.863373 12.0691 0.878791 12.085 0.863968L12.0831 0.865903L12.0483 0.900729L10.7724 2.17769L9.99237 2.95838L10.1635 3.12961L12.0966 5.0644L13.0468 6.01535L13.069 5.9931L14.3391 4.72194ZM9.19911 2.65127C9.48339 2.36047 9.77272 2.07304 10.0615 1.78617C10.2067 1.64191 10.3517 1.4978 10.496 1.35347L11.2441 0.604706C11.2781 0.571075 11.3119 0.536636 11.3457 0.50208C11.4599 0.385547 11.5754 0.267704 11.7081 0.175182C12.0232 -0.0434492 12.4465 -0.0473187 12.7868 0.107465C12.9143 0.165508 13.0245 0.254509 13.1231 0.353183L13.618 0.848489L15.2168 2.44856L15.671 2.90324C16.1021 3.33663 16.1118 4.02542 15.6865 4.46848C15.6717 4.48389 15.656 4.49761 15.6395 4.5097L15.3869 4.76257L14.1168 6.03373L13.3184 6.83277L13.3164 6.83473C13.3157 6.83551 13.3149 6.83629 13.3141 6.83706L13.2933 6.85793C13.1696 6.98425 13.0434 7.10972 12.9169 7.23548C12.8535 7.29847 12.7901 7.36154 12.7268 7.42482L11.5727 8.57989L10.0455 10.1084L8.35981 11.7955L6.72821 13.4285L5.36533 14.7925L4.48574 15.6728C4.46448 15.6941 4.44343 15.7154 4.42238 15.7367C4.38028 15.7792 4.33818 15.8218 4.29435 15.8644C4.22669 15.9302 4.14743 15.9785 4.05078 15.9921C4.00112 16.0004 3.95289 16.0001 3.90243 15.9999C3.89395 15.9999 3.88541 15.9998 3.87679 15.9998C3.54719 15.9998 3.21806 15.9993 2.88894 15.9988C2.55982 15.9984 2.2307 15.9979 1.90109 15.9979C1.4004 15.9959 0.899712 15.9959 0.399022 15.9959C0.19024 15.9959 0.0123884 15.8179 0.0123884 15.609V15.491C0.0123884 15.1621 0.0119051 14.8336 0.0114218 14.5052C0.0109385 14.1768 0.0104552 13.8483 0.0104552 13.5194C0.00985602 13.3635 0.00758519 13.2072 0.00531229 13.0507C0.000252438 12.7025 -0.00481759 12.3535 0.00852195 12.0064C0.0140756 11.8397 0.0994024 11.7545 0.199994 11.6542C0.204447 11.6497 0.20893 11.6452 0.213438 11.6407L0.491814 11.3621L1.50673 10.3464L2.95274 8.89913L4.61719 7.23328L6.28359 5.56549L7.74506 4.10278L8.77544 3.07154L9.16594 2.68071C9.17651 2.67014 9.18759 2.66032 9.19911 2.65127ZM9.44466 3.50724C9.28855 3.66591 9.12919 3.82179 8.96983 3.97767C8.84654 4.09827 8.72324 4.21887 8.60145 4.34076L6.34738 6.59673L3.7318 9.2145L1.56859 11.3795L0.781789 12.167V12.4533C0.781789 12.7774 0.782272 13.1015 0.782756 13.4256C0.783239 13.7497 0.783722 14.0737 0.783722 14.3978C0.785039 14.6732 0.785459 14.9486 0.785593 15.224H0.84365C1.16746 15.224 1.49126 15.2244 1.81507 15.2249C2.13887 15.2254 2.46268 15.2259 2.78648 15.2259C3.13585 15.2276 3.4852 15.2278 3.83457 15.2278C4.04085 15.0116 4.25502 14.8021 4.46919 14.5926C4.59249 14.472 4.71578 14.3514 4.83758 14.2295L7.09165 11.9735L9.70723 9.35574L11.8704 7.19071L12.4977 6.56288L12.3247 6.38973L10.3916 4.45494L9.44466 3.50724ZM12.3471 0.773077C12.3527 0.77578 12.3593 0.778074 12.3663 0.780083C12.3606 0.778831 12.3541 0.776622 12.3471 0.773077ZM12.3458 0.772424C12.3463 0.772644 12.3467 0.772862 12.3471 0.773077C12.3467 0.772865 12.3463 0.772649 12.3459 0.772427M12.4267 0.792755C12.4419 0.808127 12.4592 0.81004 12.4609 0.806731C12.4591 0.805597 12.4575 0.804667 12.4562 0.803989C12.4539 0.802863 12.4505 0.801573 12.4467 0.80012C12.4419 0.798285 12.4364 0.79619 12.4316 0.793835C12.43 0.79347 12.4284 0.793111 12.4267 0.792755ZM12.502 0.836213C12.5056 0.841895 12.5153 0.850534 12.5288 0.8534L12.5269 0.85154C12.5199 0.848298 12.511 0.8426 12.502 0.836213ZM15.2185 3.59491C15.2184 3.59766 15.2167 3.59381 15.2133 3.57526C15.2169 3.58302 15.2185 3.5922 15.2185 3.59491ZM15.2361 3.67909C15.2346 3.68062 15.2333 3.66486 15.2324 3.65019C15.2354 3.66365 15.2381 3.67809 15.2361 3.67909ZM15.2284 3.76228C15.2269 3.763 15.2295 3.74925 15.2323 3.73559C15.232 3.75005 15.231 3.76098 15.2284 3.76228Z" fill="black"/>
</svg>
