<svg width="14" height="9" viewBox="0 0 14 9" fill="none" xmlns="http://www.w3.org/2000/svg">
<path fill-rule="evenodd" clip-rule="evenodd" d="M1.113 4.04306L1.176 3.97506C1.174 3.99806 1.163 4.01906 1.163 4.04306C1.163 4.06706 1.174 4.08806 1.176 4.11106L1.113 4.04306ZM13.144 3.54306H1.663C1.627 3.54306 1.594 3.55606 1.56 3.56406L4.099 0.840061C4.288 0.639061 4.277 0.322061 4.075 0.134061C3.876 -0.0539386 3.556 -0.0429386 3.369 0.159061L0.317 3.43006C0.119 3.56906 0 3.79506 0 4.04306C0 4.29106 0.119 4.51706 0.317 4.65606L3.369 7.92706C3.467 8.03306 3.6 8.08606 3.734 8.08606C3.856 8.08606 3.979 8.04206 4.075 7.95206C4.277 7.76406 4.288 7.44706 4.099 7.24606L1.56 4.52206C1.594 4.53006 1.627 4.54306 1.663 4.54306H13.144C13.421 4.54306 13.644 4.31906 13.644 4.04306C13.644 3.76706 13.421 3.54306 13.144 3.54306Z" fill="#231F20"/>
</svg>
